<svg width="215" height="136" viewBox="0 0 215 136" fill="none" xmlns="http://www.w3.org/2000/svg">
<path d="M106.792 0C82.0518 0 62 20.145 62 45C62 68.2744 79.5915 87.4222 102.146 89.756C100.784 78.4901 101.29 69.2716 103.022 61.6973C102.051 56.9979 99.8439 50.0389 94.8388 45.0955C94.8388 45.0955 98.1333 50.0601 99.9178 56.7327C99.9178 56.7433 99.9283 56.7539 99.9283 56.7645C100.118 57.4753 100.287 58.1966 100.435 58.9392C100.467 59.1089 100.499 59.2786 100.53 59.459C100.667 60.2228 100.794 60.9866 100.879 61.7716C75.5685 58.6528 70.1728 35.8345 70.7641 27.2313C97.6898 28.727 103.202 46.7822 104.004 57.9844C112.821 28.971 140.834 27.2949 143.147 27.2313C144.15 49.5297 127.688 66.9166 108.006 68.4335C108.133 67.8289 108.281 67.2242 108.428 66.6301C108.471 66.4498 108.523 66.2801 108.576 66.0997C108.692 65.6754 108.809 65.2511 108.946 64.8267C108.999 64.6464 109.062 64.4555 109.115 64.2751C109.263 63.8083 109.421 63.3522 109.579 62.8854C109.622 62.7794 109.653 62.6733 109.696 62.5672C109.896 62.0156 110.107 61.4852 110.318 60.9547C110.34 60.9123 110.35 60.8593 110.371 60.8168C110.371 60.8168 110.371 60.8168 110.382 60.8168C115.429 48.5538 124.742 40.5233 124.742 40.5233C106.464 51.1315 103.381 78.7129 102.895 89.7985C104.184 89.9151 105.472 90 106.792 90C131.532 90 151.584 69.855 151.584 45C151.584 20.145 131.532 0 106.792 0Z" fill="#46A358"/>
<path d="M13.1254 110.021C17.55 110.021 21.1622 111.931 23.5047 115.417L19.1195 119.165C17.55 116.962 15.6492 115.821 13.015 115.821C8.96109 115.821 6.43727 118.5 6.43727 122.58C6.43727 126.732 9.10306 129.521 13.3857 129.521C15.6887 129.521 17.5184 128.713 18.6857 127.358V126.217H13.0544V120.782H24.9716V128.42C23.8359 130.44 22.227 132.057 20.1448 133.301C18.0626 134.513 15.7202 135.139 13.1254 135.139C5.88518 135.25 -0.101029 129.593 0.00150153 122.58C-0.108916 115.607 5.88518 109.91 13.1254 110.021Z" fill="#46A358"/>
<path d="M42.8852 134.682L37.4432 127.155H34.8484V134.682H28.5625V110.452H38.0268C43.3978 110.452 47.3492 113.756 47.3492 118.787C47.3492 121.759 45.9217 124.223 43.5477 125.689L49.9046 134.682H42.8852ZM34.8405 121.648H38.0584C39.8093 121.648 40.945 120.507 40.945 118.787C40.945 117.068 39.8093 115.959 38.0584 115.959H34.8405V121.648Z" fill="#46A358"/>
<path d="M52.3896 110.452H69.1258V116.141H58.6756V119.485H66.1288V124.77H58.6756V128.993H69.5675V134.682H52.3896V110.452Z" fill="#46A358"/>
<path d="M73.4883 110.452H90.2242V116.141H79.7741V119.485H87.2272V124.77H79.7741V128.993H90.6658V134.682H73.4883V110.452Z" fill="#46A358"/>
<path d="M115.967 110.452V135.126H113.956L100.872 122.385V134.682H94.5859V110.008H96.5971L109.682 122.567V110.452H115.967Z" fill="#46A358"/>
<path d="M123.459 126.457C124.887 128.367 126.385 129.579 128.83 129.579C130.478 129.579 131.314 128.993 131.314 127.812C131.314 126.75 130.762 126.418 128.862 125.57L126.377 124.468C122.394 122.702 120.273 120.427 120.273 117.163C120.273 112.868 123.782 110 128.712 110C132.695 110 135.51 111.91 136.969 114.881L132.766 118.114C131.598 116.355 130.502 115.547 128.783 115.547C127.466 115.547 126.63 116.062 126.63 117.092C126.63 117.971 127.142 118.454 128.712 119.073L131.488 120.245C135.692 122.012 137.663 124.136 137.663 127.551C137.663 132.249 133.822 135.118 128.814 135.118C124.469 135.118 120.959 133.026 119.2 129.682L123.459 126.457Z" fill="#46A358"/>
<path d="M141.272 110.452H147.558V119.302H156.368V110.452H162.653V134.682H156.368V124.991H147.558V134.682H141.272V110.452Z" fill="#46A358"/>
<path d="M179.211 110.008C186.23 109.857 192.406 115.626 192.256 122.567C192.398 129.579 186.23 135.237 179.211 135.126C172.16 135.237 166.087 129.579 166.237 122.567C166.087 115.626 172.16 109.865 179.211 110.008ZM179.243 115.808C175.37 115.808 172.665 118.565 172.665 122.567C172.665 124.587 173.288 126.235 174.495 127.487C175.701 128.7 177.31 129.326 179.243 129.326C182.973 129.326 185.82 126.608 185.82 122.567C185.828 118.565 182.973 115.808 179.243 115.808Z" fill="#46A358"/>
<path d="M195.858 110.452H205.323C210.693 110.452 214.645 113.756 214.645 118.787C214.645 123.747 210.591 127.155 205.323 127.155H202.144V134.682H195.858V110.452ZM205.354 121.648C207.105 121.648 208.241 120.507 208.241 118.787C208.241 117.068 207.105 115.959 205.354 115.959H202.136V121.648H205.354Z" fill="#46A358"/>
</svg>
