<svg width="20" height="20" viewBox="0 0 20 20" fill="none" xmlns="http://www.w3.org/2000/svg">
<path fill-rule="evenodd" clip-rule="evenodd" d="M9.52959 2.2436C5.50469 2.2436 2.24326 5.50244 2.24326 9.5207C2.24326 13.539 5.50469 16.7978 9.52959 16.7978C11.5376 16.7978 13.3546 15.9875 14.6732 14.675C15.9977 13.3566 16.8159 11.5347 16.8159 9.5207C16.8159 5.50244 13.5545 2.2436 9.52959 2.2436ZM0.833008 9.5207C0.833008 4.72204 4.72737 0.833344 9.52959 0.833344C14.3318 0.833344 18.2262 4.72204 18.2262 9.5207C18.2262 11.6706 17.4436 13.6389 16.149 15.1554L18.9595 17.9627C19.2351 18.2379 19.2353 18.6843 18.9601 18.9599C18.6849 19.2354 18.2384 19.2356 17.9629 18.9604L15.1497 16.1505C13.6343 17.4335 11.6719 18.2081 9.52959 18.2081C4.72737 18.2081 0.833008 14.3194 0.833008 9.5207Z" fill="currentColor"/>
</svg>
